<svg xmlns="http://www.w3.org/2000/svg" viewBox="0 0 32 32" role="img" aria-hidden="true">
  <circle cx="16" cy="16" r="16" fill="#25D366"/>
  <path d="M22.4 18.9c-.3-.2-1.9-.9-2.2-1-.3-.1-.5-.2-.8.2-.2.3-.9 1-1.1 1.2-.2.2-.4.2-.7.1-.3-.2-1.5-.5-2.8-1.7-1-1-1.7-2.3-1.9-2.7-.2-.3 0-.5.1-.7.1-.1.3-.4.5-.6.2-.2.2-.4.3-.6.1-.2 0-.4 0-.6 0-.2-.8-2-1.1-2.7-.3-.7-.6-.6-.8-.6h-.7c-.2 0-.6.1-.9.4-.3.3-1.1 1.1-1.1 2.6 0 1.6 1.1 3.1 1.3 3.3.2.2 2.2 3.4 5.4 4.7.8.3 1.4.5 1.8.6.8.3 1.6.2 2.2.1.7-.1 1.9-.8 2.2-1.5.3-.7.3-1.3.2-1.5-.1-.2-.3-.3-.6-.5z" fill="#fff"/>
</svg>
